<?xml version="1.0" encoding="utf-8"?>
<!-- Generator: Adobe Illustrator 23.0.3, SVG Export Plug-In . SVG Version: 6.00 Build 0)  -->
<svg version="1.1" id="Layer_1" xmlns="http://www.w3.org/2000/svg" xmlns:xlink="http://www.w3.org/1999/xlink" x="0px" y="0px"
	 viewBox="0 0 64 64" style="enable-background:new 0 0 64 64;" xml:space="preserve">
<style type="text/css">
	.st0{fill:url(#SVGID_1_);}
	.st1{fill:url(#SVGID_2_);}
	.st2{fill:url(#SVGID_3_);}
	.st3{fill:url(#SVGID_4_);}
	.st4{fill:url(#SVGID_5_);}
	.st5{fill:url(#SVGID_6_);}
	.st6{fill:url(#SVGID_7_);}
	.st7{fill:url(#SVGID_8_);}
	.st8{fill:url(#SVGID_9_);}
	.st9{fill:url(#SVGID_10_);}
	.st10{fill:url(#SVGID_11_);}
	.st11{fill:url(#SVGID_12_);}
	.st12{fill:url(#SVGID_13_);}
	.st13{fill:url(#SVGID_14_);}
	.st14{fill:url(#SVGID_15_);}
	.st15{fill:url(#SVGID_16_);}
	.st16{fill:url(#SVGID_17_);}
	.st17{fill:url(#SVGID_18_);}
	.st18{fill:url(#SVGID_19_);}
	.st19{fill:url(#SVGID_20_);}
	.st20{fill:url(#SVGID_21_);}
	.st21{fill:url(#SVGID_22_);}
	.st22{fill:url(#SVGID_23_);}
	.st23{fill:url(#SVGID_24_);}
	.st24{fill:url(#SVGID_25_);}
	.st25{fill:url(#SVGID_26_);}
	.st26{fill:url(#SVGID_27_);}
	.st27{fill:url(#SVGID_28_);}
	.st28{fill:url(#SVGID_29_);}
	.st29{fill:url(#SVGID_30_);}
	.st30{fill:url(#SVGID_31_);}
	.st31{fill:url(#SVGID_32_);}
	.st32{fill:url(#SVGID_33_);}
	.st33{fill:url(#SVGID_34_);}
	.st34{fill:url(#SVGID_35_);}
	.st35{fill:url(#SVGID_36_);}
	.st36{fill:url(#SVGID_37_);}
	.st37{fill:url(#SVGID_38_);}
	.st38{fill:url(#SVGID_39_);}
	.st39{fill:url(#SVGID_40_);}
	.st40{fill:url(#SVGID_41_);}
	.st41{fill:url(#SVGID_42_);}
	.st42{fill:url(#SVGID_43_);}
	.st43{fill:url(#SVGID_44_);}
	.st44{fill:url(#SVGID_45_);}
	.st45{fill:url(#SVGID_46_);}
	.st46{fill:url(#SVGID_47_);}
	.st47{fill:url(#SVGID_48_);}
	.st48{fill:url(#SVGID_49_);}
	.st49{fill:url(#SVGID_50_);}
	.st50{fill:url(#SVGID_51_);}
	.st51{fill:url(#SVGID_52_);}
	.st52{fill:url(#SVGID_53_);}
	.st53{fill:url(#SVGID_54_);}
	.st54{fill:url(#SVGID_55_);}
	.st55{fill:url(#SVGID_56_);}
	.st56{fill:url(#SVGID_57_);}
	.st57{fill:url(#SVGID_58_);}
	.st58{fill:url(#SVGID_59_);}
	.st59{fill:url(#SVGID_60_);}
	.st60{fill:url(#SVGID_61_);}
	.st61{fill:url(#SVGID_62_);}
	.st62{fill:url(#SVGID_63_);}
	.st63{fill:url(#SVGID_64_);}
	.st64{fill:url(#SVGID_65_);}
	.st65{fill:url(#SVGID_66_);}
	.st66{fill:url(#SVGID_67_);}
	.st67{fill:url(#SVGID_68_);}
	.st68{fill:url(#SVGID_69_);}
	.st69{fill:url(#SVGID_70_);}
	.st70{fill:url(#SVGID_71_);}
	.st71{fill:url(#SVGID_72_);}
	.st72{fill:url(#SVGID_73_);}
	.st73{fill:url(#SVGID_74_);}
	.st74{fill:url(#SVGID_75_);}
	.st75{fill:url(#SVGID_76_);}
	.st76{fill:url(#SVGID_77_);}
	.st77{fill:url(#SVGID_78_);}
	.st78{fill:url(#SVGID_79_);}
	.st79{fill:url(#SVGID_80_);}
	.st80{fill:url(#SVGID_81_);}
	.st81{fill:url(#SVGID_82_);}
	.st82{fill:url(#SVGID_83_);}
	.st83{fill:url(#SVGID_84_);}
	.st84{fill:url(#SVGID_85_);}
	.st85{fill:url(#SVGID_86_);}
	.st86{fill:url(#SVGID_87_);}
	.st87{fill:url(#SVGID_88_);}
	.st88{fill:url(#SVGID_89_);}
	.st89{fill:url(#SVGID_90_);}
	.st90{fill:url(#SVGID_91_);}
	.st91{fill:url(#SVGID_92_);}
	.st92{fill:url(#SVGID_93_);}
	.st93{fill:url(#SVGID_94_);}
	.st94{fill:url(#SVGID_95_);}
	.st95{fill:url(#SVGID_96_);}
	.st96{fill:url(#SVGID_97_);}
	.st97{fill:url(#SVGID_98_);}
	.st98{fill:url(#SVGID_99_);}
	.st99{fill:url(#SVGID_100_);}
	.st100{fill:url(#SVGID_101_);}
	.st101{fill:url(#SVGID_102_);}
	.st102{fill:url(#SVGID_103_);}
	.st103{fill:url(#SVGID_104_);}
	.st104{fill:url(#SVGID_105_);}
	.st105{fill:url(#SVGID_106_);}
	.st106{fill:url(#SVGID_107_);}
	.st107{fill:url(#SVGID_108_);}
	.st108{fill:url(#SVGID_109_);}
	.st109{fill:url(#SVGID_110_);}
	.st110{fill:url(#SVGID_111_);}
	.st111{fill:url(#SVGID_112_);}
	.st112{fill:url(#SVGID_113_);}
	.st113{fill:url(#SVGID_114_);}
	.st114{fill:url(#SVGID_115_);}
	.st115{fill:url(#SVGID_116_);}
	.st116{fill:url(#SVGID_117_);}
	.st117{fill:url(#SVGID_118_);}
	.st118{fill:url(#SVGID_119_);}
	.st119{fill:url(#SVGID_120_);}
	.st120{fill:url(#SVGID_121_);}
	.st121{fill:url(#SVGID_122_);}
	.st122{fill:url(#SVGID_123_);}
	.st123{fill:url(#SVGID_124_);}
	.st124{fill:url(#SVGID_125_);}
	.st125{fill:url(#SVGID_126_);}
	.st126{fill:url(#SVGID_127_);}
	.st127{fill:url(#SVGID_128_);}
	.st128{fill:url(#SVGID_129_);}
	.st129{fill:url(#SVGID_130_);}
	.st130{fill:url(#SVGID_131_);}
	.st131{fill:url(#SVGID_132_);}
	.st132{fill:url(#SVGID_133_);}
	.st133{fill:url(#SVGID_134_);}
	.st134{fill:url(#SVGID_135_);}
	.st135{fill:url(#SVGID_136_);}
	.st136{fill:url(#SVGID_137_);}
	.st137{fill:url(#SVGID_138_);}
	.st138{fill:url(#SVGID_139_);}
	.st139{fill:url(#SVGID_140_);}
	.st140{fill:url(#SVGID_141_);}
	.st141{fill:url(#SVGID_142_);}
	.st142{fill:url(#SVGID_143_);}
	.st143{fill:url(#SVGID_144_);}
	.st144{fill:url(#SVGID_145_);}
	.st145{fill:url(#SVGID_146_);}
	.st146{fill:url(#SVGID_147_);}
	.st147{fill:url(#SVGID_148_);}
	.st148{fill:url(#SVGID_149_);}
	.st149{fill:url(#SVGID_150_);}
	.st150{fill:url(#SVGID_151_);}
	.st151{fill:url(#SVGID_152_);}
	.st152{fill:url(#SVGID_153_);}
	.st153{fill:url(#SVGID_154_);}
	.st154{fill:url(#SVGID_155_);}
	.st155{fill:url(#SVGID_156_);}
	.st156{fill:url(#SVGID_157_);}
	.st157{fill:url(#SVGID_158_);}
	.st158{fill:url(#SVGID_159_);}
	.st159{fill:url(#SVGID_160_);}
	.st160{fill:url(#SVGID_161_);}
	.st161{fill:url(#SVGID_162_);}
	.st162{fill:url(#SVGID_163_);}
	.st163{fill:url(#SVGID_164_);}
	.st164{fill:url(#SVGID_165_);}
	.st165{fill:url(#SVGID_166_);}
	.st166{fill:url(#SVGID_167_);}
	.st167{fill:url(#SVGID_168_);}
	.st168{fill:url(#SVGID_169_);}
	.st169{fill:url(#SVGID_170_);}
	.st170{fill:url(#SVGID_171_);}
	.st171{fill:url(#SVGID_172_);}
	.st172{fill:url(#SVGID_173_);}
	.st173{fill:url(#SVGID_174_);}
	.st174{fill:url(#SVGID_175_);}
	.st175{fill:url(#SVGID_176_);}
	.st176{fill:url(#SVGID_177_);}
	.st177{fill:url(#SVGID_178_);}
	.st178{fill:url(#SVGID_179_);}
	.st179{fill:url(#SVGID_180_);}
	.st180{fill:url(#SVGID_181_);}
	.st181{fill:url(#SVGID_182_);}
	.st182{fill:url(#SVGID_183_);}
	.st183{fill:url(#SVGID_184_);}
	.st184{fill:url(#SVGID_185_);}
	.st185{fill:url(#SVGID_186_);}
	.st186{fill:url(#SVGID_187_);}
	.st187{fill:url(#SVGID_188_);}
	.st188{fill:url(#SVGID_189_);}
	.st189{fill:url(#SVGID_190_);}
	.st190{fill:url(#SVGID_191_);}
	.st191{fill:url(#SVGID_192_);}
	.st192{fill:url(#SVGID_193_);}
	.st193{fill:url(#SVGID_194_);}
	.st194{fill:url(#SVGID_195_);}
	.st195{fill:url(#SVGID_196_);}
	.st196{fill:url(#SVGID_197_);}
	.st197{fill:url(#SVGID_198_);}
	.st198{fill:url(#SVGID_199_);}
	.st199{fill:url(#SVGID_200_);}
	.st200{fill:url(#SVGID_201_);}
	.st201{fill:url(#SVGID_202_);}
	.st202{fill:url(#SVGID_203_);}
	.st203{fill:url(#SVGID_204_);}
	.st204{fill:url(#SVGID_205_);}
	.st205{fill:url(#SVGID_206_);}
	.st206{fill:url(#SVGID_207_);}
	.st207{fill:url(#SVGID_208_);}
	.st208{fill:url(#SVGID_209_);}
	.st209{fill:url(#SVGID_210_);}
	.st210{fill:url(#SVGID_211_);}
	.st211{fill:url(#SVGID_212_);}
	.st212{fill:url(#SVGID_213_);}
	.st213{fill:url(#SVGID_214_);}
	.st214{fill:url(#SVGID_215_);}
	.st215{fill:url(#SVGID_216_);}
	.st216{fill:url(#SVGID_217_);}
	.st217{fill:url(#SVGID_218_);}
	.st218{fill:url(#SVGID_219_);}
	.st219{fill:url(#SVGID_220_);}
	.st220{fill:url(#SVGID_221_);}
	.st221{fill:url(#SVGID_222_);}
	.st222{fill:url(#SVGID_223_);}
	.st223{fill:url(#SVGID_224_);}
	.st224{fill:url(#SVGID_225_);}
	.st225{fill:url(#SVGID_226_);}
	.st226{fill:url(#SVGID_227_);}
	.st227{fill:url(#SVGID_228_);}
	.st228{fill:url(#SVGID_229_);}
	.st229{fill:url(#SVGID_230_);}
	.st230{fill:url(#SVGID_231_);}
	.st231{fill:url(#SVGID_232_);}
	.st232{fill:url(#SVGID_233_);}
	.st233{fill:url(#SVGID_234_);}
	.st234{fill:url(#SVGID_235_);}
	.st235{fill:url(#SVGID_236_);}
	.st236{fill:url(#SVGID_237_);}
	.st237{fill:url(#SVGID_238_);}
	.st238{fill:url(#SVGID_239_);}
	.st239{fill:url(#SVGID_240_);}
	.st240{fill:url(#SVGID_241_);}
	.st241{fill:url(#SVGID_242_);}
	.st242{fill:url(#SVGID_243_);}
	.st243{fill:url(#SVGID_244_);}
	.st244{fill:url(#SVGID_245_);}
	.st245{fill:url(#SVGID_246_);}
	.st246{fill:url(#SVGID_247_);}
	.st247{fill:url(#SVGID_248_);}
	.st248{fill:url(#SVGID_249_);}
	.st249{fill:url(#SVGID_250_);}
	.st250{fill:url(#SVGID_251_);}
	.st251{fill:url(#SVGID_252_);}
	.st252{fill:url(#SVGID_253_);}
	.st253{fill:url(#SVGID_254_);}
	.st254{fill:url(#SVGID_255_);}
	.st255{fill:url(#SVGID_256_);}
	.st256{fill:url(#SVGID_257_);}
	.st257{fill:url(#SVGID_258_);}
	.st258{fill:url(#SVGID_259_);}
	.st259{fill:url(#SVGID_260_);}
	.st260{fill:url(#SVGID_261_);}
	.st261{fill:url(#SVGID_262_);}
	.st262{fill:url(#SVGID_263_);}
	.st263{fill:url(#SVGID_264_);}
	.st264{fill:url(#SVGID_265_);}
	.st265{fill:url(#SVGID_266_);}
	.st266{fill:url(#SVGID_267_);}
	.st267{fill:url(#SVGID_268_);}
	.st268{fill:url(#SVGID_269_);}
	.st269{fill:url(#SVGID_270_);}
	.st270{fill:url(#SVGID_271_);}
	.st271{fill:url(#SVGID_272_);}
	.st272{fill:url(#SVGID_273_);}
	.st273{fill:url(#SVGID_274_);}
	.st274{fill:url(#SVGID_275_);}
	.st275{fill:url(#SVGID_276_);}
	.st276{fill:url(#SVGID_277_);}
	.st277{fill:url(#SVGID_278_);}
	.st278{fill:url(#SVGID_279_);}
	.st279{fill:url(#SVGID_280_);}
	.st280{fill:url(#SVGID_281_);}
	.st281{fill:url(#SVGID_282_);}
	.st282{fill:url(#SVGID_283_);}
	.st283{fill:url(#SVGID_284_);}
	.st284{fill:url(#SVGID_285_);}
	.st285{fill:url(#SVGID_286_);}
	.st286{fill:url(#SVGID_287_);}
	.st287{fill:url(#SVGID_288_);}
	.st288{fill:url(#SVGID_289_);}
	.st289{fill:url(#SVGID_290_);}
	.st290{fill:url(#SVGID_291_);}
	.st291{fill:url(#SVGID_292_);}
	.st292{fill:url(#SVGID_293_);}
	.st293{fill:url(#SVGID_294_);}
	.st294{fill:url(#SVGID_295_);}
	.st295{fill:url(#SVGID_296_);}
	.st296{fill:url(#SVGID_297_);}
	.st297{fill:url(#SVGID_298_);}
	.st298{fill:url(#SVGID_299_);}
	.st299{fill:url(#SVGID_300_);}
	.st300{fill:url(#SVGID_301_);}
	.st301{fill:url(#SVGID_302_);}
	.st302{fill:url(#SVGID_303_);}
	.st303{fill:url(#SVGID_304_);}
	.st304{fill:url(#SVGID_305_);}
	.st305{fill:url(#SVGID_306_);}
	.st306{fill:url(#SVGID_307_);}
	.st307{fill:url(#SVGID_308_);}
	.st308{fill:url(#SVGID_309_);}
	.st309{fill:url(#SVGID_310_);}
	.st310{fill:url(#SVGID_311_);}
	.st311{fill:url(#SVGID_312_);}
	.st312{fill:url(#SVGID_313_);}
	.st313{fill:url(#SVGID_314_);}
	.st314{fill:url(#SVGID_315_);}
	.st315{fill:url(#SVGID_316_);}
	.st316{fill:url(#SVGID_317_);}
	.st317{fill:url(#SVGID_318_);}
	.st318{fill:url(#SVGID_319_);}
	.st319{fill:url(#SVGID_320_);}
	.st320{fill:url(#SVGID_321_);}
	.st321{fill:url(#SVGID_322_);}
	.st322{fill:url(#SVGID_323_);}
	.st323{fill:url(#SVGID_324_);}
	.st324{fill:url(#SVGID_325_);}
	.st325{fill:url(#SVGID_326_);}
	.st326{fill:url(#SVGID_327_);}
	.st327{fill:url(#SVGID_328_);}
	.st328{fill:url(#SVGID_329_);}
	.st329{fill:url(#SVGID_330_);}
	.st330{fill:url(#SVGID_331_);}
	.st331{fill:url(#SVGID_332_);}
	.st332{fill:url(#SVGID_333_);}
	.st333{fill:url(#path2900_1_);}
	.st334{fill:url(#path2830_1_);}
	.st335{fill:url(#path2832_1_);}
	.st336{fill:url(#path2834_1_);}
	.st337{fill:url(#path2836_1_);}
	.st338{fill:url(#path2838_1_);}
</style>
<linearGradient id="path2900_1_" gradientUnits="userSpaceOnUse" x1="14.0987" y1="16.2766" x2="14.0987" y2="43.5692">
	<stop  offset="0" style="stop-color:#6DC7FF"/>
	<stop  offset="1" style="stop-color:#E6ABFF"/>
</linearGradient>
<path id="path2900" class="st333" d="M8.4,41.8c-1.1-0.8-2.2-1.7-3-2.8c-1.6-2-2.9-4.3-3.8-6.8c-0.5-1.6-0.7-3.3-1.4-4.8
	c-0.7-1.1,0.1-2.3,1.3-2.7c0.5-0.1,1.5-0.6,0.3-0.2c-1,0.8-1.1-0.7-0.1-0.8c0.7-0.1,1-0.7,0.7-1.2c-0.8-0.5,1.9-1.1,0.5-1.8
	c-1.4-1.5,1.9-1.8,1.1-0.1c-0.2,1.3,2.3-0.2,1.7,1.3C6.6,22.6,8.3,22,8.2,23c0.9,0.1,1.2,0.8,2,0.8c0.8,0.4,2.4,0.7,2.7,1.6
	C12,26.2,10.1,24.2,10,26c0.3,2.7,0.2,5.5,1.2,8.1c0.5,1.6,1.6,2.8,2.6,4c1,1.2,2.3,2,3.7,2.7c1.2,0.6,2.5,0.9,3.8,1.2
	c0.5-0.4,1.5-1.9,2.3-1.3c0,0.7-1.6,1.5-0.1,1.4c0.9-0.3,1.5,0.7,2.3-0.2c0.7,0.8,2.9-0.5,2.4,1.2c-0.7,0.4-1.6,0.2-2.3,0.8
	c-1.1-0.5-2,0.5-3.2,0.4c-1.4,0.2-2.7,0.3-4.1,0.3c-2.2-0.2-4.5-0.3-6.7-1C10.7,43.2,9.5,42.5,8.4,41.8L8.4,41.8z M10.3,42.6
	c1.2,0.5,2.3,1,3.6,1.2c2,0.3,4.2,0.7,6.2,0.3c-0.9-0.4-1.9,0.2-2.8-0.3c-1.1,0.2-2.3-0.1-3.4-0.2c-1.3-0.6-2.7-1-3.9-1.7
	c-1.5-0.5,0.8,0.7,1.2,0.8c0.9,0.5-1-0.3-1.3-0.5c-0.8-0.4-0.9-0.3-0.1,0.1C10,42.5,10.2,42.6,10.3,42.6L10.3,42.6z M8.1,41.1
	c1.1,0.4,0-0.8-0.5-0.7c-0.2-0.4-0.9-0.7-0.4-0.9c-0.8,0.3-0.9-1.1-1.3-0.9c-0.9-0.3-0.3-1.3-1.4-1.9c-0.1-0.6-1-1.2-1.3-2.1
	C3,34.1,2.1,32.7,2.7,34c0.5,1.3,1.3,2.3,2.1,3.4c0.6,1,1.2,2.1,2.2,2.7C7.3,40.5,7.6,41,8.1,41.1L8.1,41.1z M4.8,37.5 M9.5,41.6
	 M10.1,41.8 M10.8,42.1 M12.2,42.9 M9.6,41.1 M10.2,41.4 M13.1,43.2c0.5,0.3,2.7,0.6,1.3,0.1C14.2,43.4,11.8,42.6,13.1,43.2z
	 M8.5,39.6 M9.8,40.4 M11,41.1 M7.9,39c0.5,0.4,2.2,0.1,0.8-0.3c-0.6-0.3-2-0.6-1.1,0.2L7.9,39L7.9,39z M11.8,41.3 M10.6,40.4
	c1.3,0.4-1.1-0.8-0.3-0.1l0.2,0.1L10.6,40.4L10.6,40.4z M12.9,41.7C14.2,41.8,11.8,41.6,12.9,41.7L12.9,41.7z M7.5,38.3 M15.1,42.9
	 M9.6,39.6 M7.6,38.1 M5.2,36.5 M11.5,40.6 M15.5,43 M11.2,40.2 M8.2,38.4 M13.2,41.4 M10.6,39.7c1,0.1-1.2-0.7-0.2-0.1L10.6,39.7
	L10.6,39.7z M14,41.8c0.9-0.5,0.6,1.3,1.5,0.2c0.9-0.7-0.8,0.8,0.3,0.1c0.8-0.5,2,0.3,2.8,0.5c0.5,0,1.1,0.5,1.6,0.2
	c1.1-0.3-2.1-0.4-1.3-1c-1,0.3-1.7-0.3-2.2-1c-1.1-0.3-2.4-0.8-3-1.8c-0.2-0.4,0.3,0.1-0.2-0.6c-0.7-0.6-1-1.3-1.5-2
	c-0.5-0.3-0.6-1.1-0.7,0c0-0.7-0.6-1.2-0.8-1c0-0.7,0.7-0.3,0.2-0.8c-0.1-0.7-0.5-1.4-0.6-2.2c-0.2-0.4,0-1.2-0.6-0.3
	C9.6,33,9.8,31,10.1,31.6c0.4-0.7-0.1-0.6-0.2-0.5c0.3-0.6,0.2-1.4-0.1-1.1c0.1-0.6,0.2-2.2-0.2-1.9c0.3-0.6,0.5-2.9-0.6-2
	c-0.5,0-1.2,0.2-1.6,0.3c1.2,0.6-0.1,0.2-0.6,0.1c-0.1,0.6-0.5,0.3-1.1,0.3c0.9,0.1-0.5,1-1,0.6c-0.7,0.3,0.6,1.2,0,1.4
	c0.1,0.4-1.1-0.1-1,0.8c-0.7-0.3-0.1,1.1,0.2,0.6c1.1,0.3,0.8,1,0.8,1.7c-0.2,0.4-0.9-0.9-0.2-0.9c-0.6-1-0.7-0.4-1.2,0.1
	c-0.1,0,1.3,0.6,0.4,0.9c0.8,0.1,0.8,0.8,0.9,1.2c0.5,0.5,0.4-0.5,0.9,0c-0.3-0.5-1.8-1.4-0.6-1.1c0-0.5-0.2-0.9,0.2-0.9
	c0.4-0.7-0.4,1.6,0.4,0.8C6,32,6,31.5,6.4,32.2c0.6,0.6,0.2,1-0.6,0.5c0.1,0.5,1.1,0.7,0.9,1.5c0.2,0.7,0.5,0.4,0.7,0.4
	c0.2,0.7,0.3,0.2,0.3-0.1c0.8,0.2,0.6,0.7,0.9,1c0.6,0.3-0.8-1.8,0.2-0.6c1.1,1,0.4,1.4-0.6,1.2c0.6,0,0.8,0.8,1.5,0.8
	c0.7,0.3,1.1,1.6,0,1.1c-0.4-0.4-1.9-0.8-0.7-0.1c1.1,0.5,2,0.8,3,1.4c0.8,0.5,1.1,1.2,1.4,1.3c-0.6,0.3-1.9-0.2-1-0.4
	c-0.6-0.1-1.3-0.4-0.7,0.3c0.5,0.4,1.7,0.4,1.9,0.4c-0.2,0.4-0.5,0.4,0,0.5C13.2,41.5,13.9,41.6,14,41.8L14,41.8z M12.8,38.5
	c-0.3-0.4-0.4-1-0.1-0.5C13,38.1,13.4,39.1,12.8,38.5L12.8,38.5z M16.6,40.9 M12.3,37.6 M11.9,37.1 M7.3,33.9 M11,35.9 M8.4,34.1
	 M10.6,34.8c-0.4-0.9,0.3-0.5,0.1,0.2L10.6,34.8L10.6,34.8z M6.8,32.3c-0.2-0.3-0.5-1.2-0.4-1.5c0.1,0.4,0.9,1.9,0.4,0.6
	c-0.6-1.1,0.7,0.4,0.8,0.6c0.1,0.3-0.4-0.1-0.1,0.6C7,31.9,7.3,33,6.8,32.3z M5.6,31.4 M6.1,31.6 M4.9,30.6c-0.4-0.4-0.8-0.8,0-0.3
	c0.3,0-0.7-0.9,0.1-0.3C5.7,30.2,5.3,31.3,4.9,30.6z M5.5,30.6 M5.9,30.8 M5.1,30c-1.3-1.1,1.6,0.6,0.2,0.2L5.1,30L5.1,30z
	 M8.8,32.1c-0.6-0.3-0.1-2.3,0-1c0.5-0.2,0,0.7,0.4,0.7C9.1,32.4,8.9,32.6,8.8,32.1z M10.1,32.9 M9.9,32.7 M5.4,29.6
	c-0.8-1.1,2.4,1.1,0.5,0.3C5.7,29.8,5.5,29.8,5.4,29.6z M8,31C7.9,30,8.1,31.1,8,31L8,31z M9.9,32.2 M5.5,29.2
	c0.5-0.1,2,0.9,0.6,0.3C5.9,29.3,5.6,29.3,5.5,29.2z M9.7,31.3c0.1-1,0.3-0.6,0,0.1L9.7,31.3L9.7,31.3L9.7,31.3z M5.9,28.8
	c0.2-0.3-0.5-1.3,0.1-0.4c0.3,0.2,0.8,0.4,0.3,0.5C7,29.5,6.1,29.1,5.9,28.8z M9.5,30.9 M5.4,27.8 M6.4,28.4 M9,29.8 M8.9,29.5
	 M8.7,28.9C8.6,28.5,8.9,29.4,8.7,28.9L8.7,28.9z M9,28.3c-0.3-0.4,0.3-2,0.4-1c-0.3,0.7-0.1,1.1,0.1,0.2C9.9,26.7,9.4,29,9,28.3
	L9,28.3z M9.4,26 M8.8,38.5 M10.1,39.2c0.7,0.2,0.7-0.1,0.1-0.2c-0.4-0.3-1.5-0.7-0.5,0C9.7,39.1,10,39.1,10.1,39.2L10.1,39.2z
	 M7.5,37.5c0.4,0.3,1.5,0.8,0.6,0.1c0.3-0.4-0.6-0.6-0.3-0.8c-0.8-0.5-0.6-0.4-0.1-0.4c-0.9-0.4,0.1-0.4,0.1-0.6
	c-0.4-0.1-1.8-0.6-0.9,0C6,35.4,6.6,36,6.4,35.9c-0.9-0.2,0.8,0.7-0.1,0.4c0.5,0.4,1.3,1,0.2,0.4C6.3,37,7.3,37.3,7.5,37.5L7.5,37.5
	z M8.9,38.2 M15.8,42.5 M16.6,42.8c0.4-0.4,0,0.6,0.6-0.1c0-0.5,0-0.8-0.7-0.2C16.3,42.6,16.2,43.1,16.6,42.8L16.6,42.8z M5.2,35.6
	 M5.9,36.1 M10.3,38.8c0.4,0.4,2,0.3,0.5,0C10.6,38.5,9.5,38.6,10.3,38.8z M16.3,42.5 M17.7,43.4 M17.7,43.1
	C18.4,42.4,17,43.2,17.7,43.1L17.7,43.1z M3.3,34c-0.6-0.9-0.4-1.3-1-2c-0.1-0.6-1-1.8-0.5-0.5C2.4,32.3,2.5,33.5,3.3,34z
	 M17.4,42.9 M18.4,43.3 M5,34.7 M18.2,43c0.6-0.4-0.1-0.4-0.1,0L18.2,43L18.2,43z M9.5,37.5 M10,37.8 M19.3,43.3
	c0.8-0.6-0.5-0.1-0.2,0.1L19.3,43.3L19.3,43.3z M19,43.2 M20.6,44.2 M5.4,34.4c0.6,0.1,2.4,1.5,1.4,0.1c-0.6-0.2-0.2-1.5-0.8-1.3
	c0.4,0.6,0.3,0.9-0.5,0.5c-1-0.5-0.6,0.2-0.4,0.4C4.8,34.3,5.4,34.4,5.4,34.4L5.4,34.4z M2.6,32.3c0.1-0.4-1-2.5-0.5-1
	C2.2,31.6,2.2,32.1,2.6,32.3z M7.7,35.4 M8.5,35.6 M15.1,39.8C15,39.5,14.6,39.8,15.1,39.8L15.1,39.8z M15.4,40 M18.1,41.7 M4,32.6
	 M14.5,39.3 M3.7,31.9 M5.1,32.6 M21.6,42.8c0.6-0.1,2,0.3,2.2-0.2c-0.7,0-2.5-0.5-2.6,0.1l0.2,0L21.6,42.8L21.6,42.8L21.6,42.8z
	 M5.5,32.7 M1.9,30.2 M2.8,30.4 M3.3,30.7 M6.3,32.6 M2.9,30.1 M1.2,29 M1.4,28.8 M2.9,29.7c0.6-0.2-1.1-0.5-0.1,0L2.9,29.7z
	 M22.1,41.5 M24.4,42.7 M3,28.9 M1,27.6c-0.1-0.6-0.1-1.7,1-1.4c-1.4,0.3,1,1.7,0.7,0.6c0.6,0,1.2-0.3,0.8,0.2c1.2-0.1,2-1.1,3.1-1
	c0.9-0.1,1.8-0.2,2.8-0.6c0.8-0.1,1.5-0.9,1.1-1.4c-1.1-0.1-2.2,0-3.3,0.3c-1.3,0.3-2.5,0.8-3.8,1c-1.3,0.2,0.3,0.5-0.1,0.5
	c-0.7,0.2,0.8,0.4-0.1,0.6c-0.5-0.1-1.1-0.3-0.9-0.9C1,25.8,0,26.3,1,27.6L1,27.6L1,27.6L1,27.6z M3.9,26.1c0.3-1.1,1.5,0.9,0.5,0.1
	C4.3,26.1,4,26,3.9,26.1z M4,25.6 M4.5,25.6c0-0.5,1.2,0.3,0.2,0.2L4.5,25.6L4.5,25.6z M5.2,25.3 M5.4,25.2c0.4-0.5,2.5-0.3,1-0.1
	C6,24.8,5.7,25.3,5.4,25.2z M8,24.7 M8.8,24.7c0.3-0.7,1.1-0.3,0.1-0.1C8.9,24.7,8.9,25,8.8,24.7z M2.7,28.6
	C3.5,28.1,1.9,28.1,2.7,28.6L2.7,28.6z M3.3,28.7 M1.5,27.5 M25.8,42.6 M23.3,40.9 M26.4,42.8c0.7,0,2-0.2,0.6-0.2
	C26.8,42.6,25.7,42.6,26.4,42.8L26.4,42.8z M3.9,28.4c0.5,0,0.8-0.6-0.1-0.6c-1.4-0.1,1.3,0.5-0.2,0.3C3.4,28.3,3.9,28.5,3.9,28.4z
	 M4.3,28.7 M4.9,27.2 M3.1,24.2c0.9-0.3,2.2-0.7,2.7,0.2c-0.5-0.5-0.2-1.1,0.2-0.3c0.6,0.8,0.9-0.4,0.5-0.6c0.4,0.6,1,0.8,0.3,0
	c0.7-0.9-1.4,0.1-1.9,0.1C4.7,23.7,2.5,24.2,3.1,24.2z M3.7,23.2c0.5-0.4,1.9,0.2,1-0.4C4.6,22.7,2.8,23.3,3.7,23.2z M5.6,23.3
	c0.6,0-0.3-0.8,0.5-0.5c-0.1-0.4-0.9-0.5-1.2-0.6C4.7,22.5,5.3,23.3,5.6,23.3z M4,21.5 M4.8,21.7c1-0.1-0.3-0.4-0.2,0L4.8,21.7
	L4.8,21.7z M3.3,20.5c-0.7-0.9,1.3,0.2,0.6-0.8C3.3,19.2,2.7,20.2,3.3,20.5z M12.5,25.4c0.3-0.6-1.4-0.8-0.2-0.2
	C12.4,25.3,12.4,25.5,12.5,25.4z"/>
<g id="text3850">
	<linearGradient id="path2830_1_" gradientUnits="userSpaceOnUse" x1="23.312" y1="18.8723" x2="23.312" y2="35.2844">
		<stop  offset="0" style="stop-color:#1A6DFF"/>
		<stop  offset="1" style="stop-color:#C822FF"/>
	</linearGradient>
	<path id="path2830" class="st334" d="M28,21.4c-0.1,0.5-0.2,1.2-0.2,2.3c0,0.2-0.1,0.3-0.3,0.3c-0.2,0-0.3-0.1-0.4-0.3
		c-0.2-0.5-0.4-0.9-0.6-1.1c-0.2-0.2-0.5-0.4-0.9-0.4c-0.4-0.1-1.4-0.1-2.9-0.1c-0.4,0-0.6,0-0.7,0.1c-0.1,0-0.1,0.2-0.1,0.3v4.7
		c0,0.2,0.1,0.2,0.3,0.2c0.6,0,1.5,0,2.7-0.1c0.2,0,0.4-0.1,0.5-0.2c0.1-0.1,0.2-0.4,0.2-0.9c0-0.3,0.2-0.4,0.5-0.3
		c0.2,0,0.3,0.2,0.3,0.3c-0.2,0.9-0.3,2.2-0.2,3.7c0,0.2-0.1,0.3-0.3,0.3c-0.2,0-0.3-0.1-0.4-0.3c-0.2-0.9-0.5-1.3-1-1.4
		c-0.5-0.1-1.3-0.1-2.4-0.1c-0.1,0-0.2,0-0.2,0.1v4.7c0,0.3,0.1,0.6,0.4,0.7c0.2,0.1,0.6,0.2,1.3,0.3c0.3,0,0.5,0.2,0.4,0.4
		c0,0.2-0.3,0.3-0.9,0.3c-1.6-0.1-3-0.1-4.1,0c-0.3,0-0.4-0.1-0.4-0.4c0-0.2,0.1-0.3,0.4-0.3c0.7-0.1,1-0.7,1-1.8v-8.9
		c0-0.5-0.1-0.8-0.2-1.1c-0.2-0.2-0.5-0.5-0.9-0.7c-0.3-0.1-0.4-0.3-0.3-0.5c0-0.1,0.1-0.2,0.2-0.2c0.1,0,0.3,0,0.5,0
		c0.4,0.1,1.5,0.1,3.1,0.1c1.9,0,3.6,0,4.9-0.1C27.8,21.2,28,21.2,28,21.4C28,21.4,28,21.4,28,21.4L28,21.4z"/>
	<linearGradient id="path2832_1_" gradientUnits="userSpaceOnUse" x1="32.3094" y1="18.8723" x2="32.3094" y2="35.2844">
		<stop  offset="0" style="stop-color:#1A6DFF"/>
		<stop  offset="1" style="stop-color:#C822FF"/>
	</linearGradient>
	<path id="path2832" class="st335" d="M34.8,34.6c0,0.3-0.2,0.4-0.5,0.4c-1-0.1-2.1-0.1-3.5,0c-0.3,0-0.5,0-0.5,0
		c-0.1,0-0.1-0.2-0.1-0.3c0-0.2,0.2-0.3,0.6-0.4c0.4-0.1,0.6-0.5,0.6-1v-9.4c0-0.6-0.1-1-0.2-1.2c-0.2-0.3-0.4-0.5-0.9-0.6
		c-0.2-0.1-0.3-0.2-0.3-0.3c0-0.2,0.2-0.4,0.5-0.5c0.5-0.2,1-0.4,1.5-0.7c0.4-0.2,0.7-0.4,0.8-0.4c0.3,0,0.4,0.2,0.4,0.5
		c0,0,0,0.3,0,1c0,0.7,0,1.4,0,2l0,9.3c0,0.4,0.1,0.7,0.3,0.9c0.2,0.2,0.6,0.3,1.1,0.4C34.6,34.3,34.8,34.4,34.8,34.6z"/>
	<linearGradient id="path2834_1_" gradientUnits="userSpaceOnUse" x1="40.2126" y1="18.8723" x2="40.2126" y2="35.2844">
		<stop  offset="0" style="stop-color:#1A6DFF"/>
		<stop  offset="1" style="stop-color:#C822FF"/>
	</linearGradient>
	<path id="path2834" class="st336" d="M44.2,33.9c0,0.1-0.3,0.4-0.8,0.7c-0.5,0.3-1,0.4-1.3,0.4c-0.3,0-0.5-0.1-0.7-0.4
		c-0.2-0.3-0.4-0.4-0.4-0.4c-0.1,0-0.4,0.1-1,0.4c-0.6,0.3-1.2,0.4-1.8,0.4c-0.6,0-1-0.2-1.4-0.5c-0.4-0.4-0.6-0.9-0.6-1.5
		c0-1.2,1.4-2.1,4.1-2.6c0.5-0.1,0.7-0.3,0.7-0.6l0-0.7c0-1.1-0.5-1.7-1.5-1.7c-0.3,0-0.6,0.3-0.8,0.8c-0.3,0.5-0.6,0.8-1.1,0.9
		c-0.6,0.1-0.9-0.2-0.9-0.7c0-0.3,0.4-0.7,1.3-1.2c0.9-0.5,1.7-0.7,2.6-0.7c1.4,0,2.1,0.7,2.1,2l0,4.3c0,0.4,0.2,0.7,0.6,0.7
		c0.1,0,0.2,0,0.4-0.1c0.2,0,0.3-0.1,0.4-0.1C44.1,33.5,44.2,33.6,44.2,33.9L44.2,33.9z M41,31.6c0-0.2,0-0.3-0.1-0.3
		c-0.1-0.1-0.2-0.1-0.4,0C38.8,31.5,38,32,38,32.8c0,0.8,0.4,1.2,1.3,1.2c0.3,0,0.7-0.1,1.1-0.2c0.4-0.2,0.6-0.3,0.6-0.5L41,31.6z"
		/>
	<linearGradient id="path2836_1_" gradientUnits="userSpaceOnUse" x1="48.8885" y1="18.8723" x2="48.8885" y2="35.2844">
		<stop  offset="0" style="stop-color:#1A6DFF"/>
		<stop  offset="1" style="stop-color:#C822FF"/>
	</linearGradient>
	<path id="path2836" class="st337" d="M52,32.7c0,0.7-0.3,1.3-0.8,1.7c-0.6,0.4-1.3,0.6-2.3,0.6c-0.6,0-1.3-0.1-1.9-0.2
		c-0.6-0.1-0.9-0.2-1-0.3c-0.1-0.1-0.1-0.6-0.1-1.4c0-0.4,0.1-0.6,0.2-0.6c0.2,0,0.3,0.1,0.4,0.3c0.5,0.9,1.4,1.4,2.5,1.4
		c1,0,1.5-0.3,1.5-1c0-0.3-0.1-0.5-0.3-0.7c-0.2-0.2-0.7-0.5-1.4-0.8c-1-0.4-1.7-0.8-2-1.2c-0.4-0.4-0.5-0.8-0.5-1.5
		c0-0.7,0.3-1.3,0.9-1.7c0.5-0.4,1.2-0.6,2.1-0.6c0.6,0,1.1,0,1.5,0.1c0.5,0.1,0.8,0.2,0.8,0.3c0.1,0.4,0.2,0.9,0.3,1.7
		c0,0.1-0.1,0.2-0.3,0.2c-0.2,0-0.4,0-0.5-0.1c-0.5-0.9-1.2-1.3-2.1-1.3c-0.9,0-1.4,0.3-1.4,0.9c0,0.3,0.1,0.6,0.4,0.8
		c0.2,0.2,0.8,0.4,1.6,0.8c0.9,0.4,1.5,0.7,1.8,1C51.8,31.5,52,32,52,32.7z"/>
	<linearGradient id="path2838_1_" gradientUnits="userSpaceOnUse" x1="58.7831" y1="18.8723" x2="58.7831" y2="35.2844">
		<stop  offset="0" style="stop-color:#1A6DFF"/>
		<stop  offset="1" style="stop-color:#C822FF"/>
	</linearGradient>
	<path id="path2838" class="st338" d="M64,34.5c0,0.2-0.2,0.4-0.5,0.4c-0.5,0-1.1,0-1.9,0.1c-0.4,0.1-0.7,0-0.8-0.1
		c-1.1-1.2-2-2.4-2.8-3.7c-0.1-0.1-0.1-0.2-0.2-0.2c-0.1,0-0.3,0.1-0.6,0.3c-0.3,0.2-0.5,0.4-0.5,0.8c0,0.2,0,0.6,0,1
		c0,0.4,0.1,0.7,0.3,0.9c0.1,0.1,0.5,0.2,1,0.2c0.3,0,0.5,0.2,0.5,0.4c0,0.2,0,0.3-0.1,0.3c-0.1,0-0.2,0-0.4,0
		c-0.7-0.1-1.9,0-3.5,0.1c-0.4,0-0.6,0-0.7-0.2c0,0,0-0.1,0-0.2c0-0.2,0.2-0.4,0.6-0.5c0.4-0.1,0.6-0.5,0.6-1.3v-9.1
		c0-0.6-0.1-1-0.2-1.2c-0.2-0.3-0.5-0.5-1-0.7c-0.2-0.1-0.3-0.2-0.3-0.3c0-0.2,0.2-0.4,0.5-0.5c0.5-0.2,1-0.4,1.5-0.7
		c0.4-0.2,0.6-0.4,0.7-0.4c0.3,0,0.4,0.2,0.4,0.5c0,0,0,0.3,0,1c0,0.5,0,1.2,0,2l0,6.5c0,0.2,0,0.3,0.1,0.3c0.1,0,0.3-0.1,0.5-0.3
		c0.6-0.4,1.3-1,2.1-1.8c0.2-0.2,0.2-0.3,0.2-0.4c0-0.2-0.3-0.3-0.8-0.4c-0.2,0-0.4-0.2-0.3-0.4c0-0.2,0.1-0.3,0.4-0.3
		c0.5,0.1,1.2,0.1,2.2,0.1c0.7,0,1.3,0,2,0c0.2,0,0.3,0.1,0.3,0.4c0,0.2-0.2,0.4-0.5,0.4c-0.5,0-1,0.1-1.5,0.4
		c-0.7,0.3-1.4,0.8-2.1,1.6c-0.1,0-0.1,0.1-0.1,0.2c0,0.1,0.1,0.3,0.4,0.7c0.9,1.3,1.7,2.3,2.4,3c0.5,0.4,1,0.6,1.4,0.6
		c0.3,0,0.5,0,0.6,0.1C64,34.2,64,34.4,64,34.5L64,34.5z"/>
</g>
</svg>