<svg xmlns="http://www.w3.org/2000/svg" xmlns:xlink="http://www.w3.org/1999/xlink" viewBox="0,0,256,256" width="96px" height="96px"><g fill="none" fill-rule="nonzero" stroke="none" stroke-width="none" stroke-linecap="none" stroke-linejoin="none" stroke-miterlimit="10" stroke-dasharray="" stroke-dashoffset="0" font-family="none" font-weight="none" font-size="none" text-anchor="none" style="mix-blend-mode: normal"><g transform="scale(5.33333,5.33333)"><path d="M40.5,31.7v4.8c0,2.2 -1.8,4 -4,4h-25c-2.2,0 -4,-1.8 -4,-4v-11.6" fill="none" stroke="#ffffff" stroke-width="3" stroke-linecap="round" stroke-linejoin="round"></path><path d="M7.5,19.2v-7.7c0,-2.2 1.8,-4 4,-4h25c2.2,0 4,1.8 4,4v14" fill="none" stroke="#ffffff" stroke-width="3" stroke-linecap="round" stroke-linejoin="round"></path><circle cx="15.5" cy="15.5" r="2.5" fill="#ffffff" stroke="none" stroke-width="1" stroke-linecap="butt" stroke-linejoin="miter"></circle><path d="M17,35h-3c-0.6,0 -1,-0.4 -1,-1v-13c0,-0.6 0.4,-1 1,-1h3c0.6,0 1,0.4 1,1v13c0,0.6 -0.4,1 -1,1z" fill="#ffffff" stroke="none" stroke-width="1" stroke-linecap="butt" stroke-linejoin="miter"></path><path d="M29,20c-1.5,0 -2.9,0.6 -4,1.5v-0.5c0,-0.6 -0.4,-1 -1,-1h-3c-0.6,0 -1,0.4 -1,1v13c0,0.6 0.4,1 1,1h3c0.6,0 1,-0.4 1,-1v-7.5c0,-1.4 1.1,-2.5 2.5,-2.5c1.4,0 2.5,1.1 2.5,2.5v7.5c0,0.6 0.4,1 1,1h3c0.6,0 1,-0.4 1,-1v-8c0,-3.3 -2.7,-6 -6,-6z" fill="#ffffff" stroke="none" stroke-width="1" stroke-linecap="butt" stroke-linejoin="miter"></path></g></g></svg>