<?xml version="1.0" encoding="iso-8859-1"?>
<!-- Generator: Adobe Illustrator 26.3.1, SVG Export Plug-In . SVG Version: 6.00 Build 0)  -->
<svg version="1.1" xmlns="http://www.w3.org/2000/svg" xmlns:xlink="http://www.w3.org/1999/xlink" x="0px" y="0px"
	 viewBox="0 0 48 48" style="enable-background:new 0 0 48 48;" xml:space="preserve">
<g id="&#x421;&#x43B;&#x43E;&#x439;_1">
</g>
<g id="&#x421;&#x43B;&#x43E;&#x439;_2">
	<g id="&#x421;&#x43B;&#x43E;&#x439;_17">
		<linearGradient id="SVGID_1_" gradientUnits="userSpaceOnUse" x1="21.8607" y1="8.237" x2="25.7034" y2="36.5516">
			<stop  offset="0" style="stop-color:#00C1E0"/>
			<stop  offset="1" style="stop-color:#009BB8"/>
		</linearGradient>
		<path style="fill:url(#SVGID_1_);" d="M24,9.604c-5.589,0-9.347,2.439-11.276,7.318c-0.2,0.505,0.417,0.92,0.816,0.551
			c2.035-1.882,4.322-2.505,6.86-1.871c1.826,0.456,3.131,1.781,4.576,3.247C27.328,21.236,30.051,24,36,24
			c5.589,0,9.348-2.44,11.276-7.319c0.2-0.505-0.417-0.92-0.816-0.551c-2.035,1.882-4.322,2.506-6.86,1.872
			c-1.825-0.456-3.13-1.781-4.575-3.247C32.672,12.367,29.948,9.604,24,9.604L24,9.604z M12,24c-5.589,0-9.348,2.44-11.276,7.319
			c-0.2,0.505,0.417,0.92,0.816,0.551c2.035-1.882,4.322-2.506,6.86-1.871c1.825,0.457,3.13,1.781,4.575,3.246
			c2.353,2.388,5.077,5.152,11.025,5.152c5.589,0,9.348-2.44,11.276-7.319c0.2-0.505-0.417-0.92-0.816-0.551
			c-2.035,1.882-4.322,2.506-6.86,1.871c-1.826-0.456-3.131-1.781-4.576-3.246C20.672,26.764,17.949,24,12,24L12,24z"/>
	</g>
</g>
</svg>